# xmcd
#
# Track frame offsets: 
#        150
#        4899
#        10824
#        17907
#        21399
#        24879
#        30305
#        37896
#        41162
#        46574
#        50526
#        56441
#        60458
#        65650
#        67507
#        72923
#        85543
#        91285
#        104836
#        107094
#        108976
#        112972
#        114383
#        120710
#        122618
#        126242
#        129827
#        132349
#        138762
#        142797
#        144855
#        152941
#        159054
#        165093
#        172778
#        178037
#        185159
#        196267
#
# Disc length: 2720 seconds
#
# Revision: 0
# Processed by: cddbd v1.5.2PL0 Copyright (c) Steve Scherf et al.
# Submitted via: ExactAudioCopy v1.0b1
#
DISCID=e20a9e26
DTITLE=Johnny Cash - The Gospel Road [CD1]
DYEAR=1973
DGENRE=Gospel
TTITLE0=Praise The Lord
TTITLE1=Introduction
TTITLE2=Gospel Road (Part 1)
TTITLE3=Jesus' Early Years
TTITLE4=Gospel Road (Part 2)
TTITLE5=John The Baptist
TTITLE6=Baptism Of Jesus
TTITLE7=Wilderness Temptation
TTITLE8=Follow Me, Jesus
TTITLE9=Gospel Road (Part 3)
TTITLE10=Jesus Announces His Divinity
TTITLE11=Jesus' Opposition Is Established
TTITLE12=Jesus' First Miracle
TTITLE13=He Turned The Water Into Wine (Part 1)
TTITLE14=State Of The Nation
TTITLE15=I See Men As Trees Walking
TTITLE16=Jesus Was A Carpenter (Part 1)
TTITLE17=Choosing Of Twelve Disciples
TTITLE18=Jesus' Teachings
TTITLE19=Parable Of The Good Shepherd
TTITLE20=The Two Greatest Commandments
TTITLE21=Greater Love Hath No Man
TTITLE22=John The Baptist's Imprisonment And Death
TTITLE23=Jesus Cleanses Temple
TTITLE24=Jesus Upbraids Scribes And Pharises
TTITLE25=Jesus In The Temple
TTITLE26=Come Unto Me
TTITLE27=The Adulterous Woman
TTITLE28=Help (Part 1)
TTITLE29=Jesus And Nicodemus
TTITLE30=Help (Part 2)
TTITLE31=Sermon On The Mount
TTITLE32=Blessed Are
TTITLE33=The Lord's Prayer, Amen Chorus
TTITLE34=Introducing Mary Magdalene
TTITLE35=Mary Magdelene Speaks
TTITLE36=Follow Me
TTITLE37=Magdalene Speaks Again
EXTD=
EXTT0=
EXTT1=
EXTT2=
EXTT3=
EXTT4=
EXTT5=
EXTT6=
EXTT7=
EXTT8=
EXTT9=
EXTT10=
EXTT11=
EXTT12=
EXTT13=
EXTT14=
EXTT15=
EXTT16=
EXTT17=
EXTT18=
EXTT19=
EXTT20=
EXTT21=
EXTT22=
EXTT23=
EXTT24=
EXTT25=
EXTT26=
EXTT27=
EXTT28=
EXTT29=
EXTT30=
EXTT31=
EXTT32=
EXTT33=
EXTT34=
EXTT35=
EXTT36=
EXTT37=
PLAYORDER=
